<svg width="50" height="49" viewBox="0 0 50 49" fill="none" xmlns="http://www.w3.org/2000/svg">
<path d="M25 49C38.8071 49 50 38.1731 50 24.8174C50 11.4617 38.8071 0.634766 25 0.634766C11.1929 0.634766 0 11.4617 0 24.8174C0 38.1731 11.1929 49 25 49Z" fill="#51B747"/>
<path d="M50 25.4548C49.98 25.4262 49.9599 25.4071 49.9299 25.3784C46.3229 21.9489 42.726 18.5193 39.129 15.0898C39.0188 14.9847 38.9086 14.8892 38.7984 14.7936C38.0169 14.1727 37.0951 13.9243 36.0932 14.0198C35.2415 14.1058 34.5101 14.4688 33.8989 15.0516C29.5906 19.1689 25.2723 23.2767 20.964 27.3941C20.7536 27.5851 20.8137 27.5947 20.6033 27.3941C19.1204 25.9802 17.6376 24.5568 16.1447 23.1525C15.1829 22.245 14.0206 21.9393 12.7081 22.2259C11.2052 22.5507 10.063 23.8881 10.0029 25.3593C9.96279 26.4006 10.3435 27.2794 11.115 28.015C18.0684 34.6544 25.0318 41.2938 31.9853 47.9331C32.0153 47.9618 32.0454 47.9904 32.0754 48C42.3252 45.1054 49.8297 36.1351 50 25.4548Z" fill="#3F972D"/>
<path d="M20.7507 36C20.1508 36 19.5409 35.7829 19.081 35.3488L11.0423 27.7615C9.65256 26.4498 9.65256 24.317 11.0423 23.0053C12.4321 21.6935 14.6917 21.6935 16.0815 23.0053L20.7507 27.4123L33.9185 14.9838C35.3083 13.6721 37.5679 13.6721 38.9577 14.9838C40.3474 16.2955 40.3474 18.4283 38.9577 19.7401L22.4204 35.3394C21.9605 35.7829 21.3606 36 20.7507 36ZM13.5619 23.7413C13.122 23.7413 12.6721 23.9018 12.3321 24.2226C11.6522 24.8643 11.6522 25.9024 12.3321 26.5441L20.3708 34.1315C20.5807 34.3297 20.9207 34.3297 21.1306 34.1315L37.6679 18.5227C38.3478 17.881 38.3478 16.8429 37.6679 16.2012C36.988 15.5595 35.8882 15.5595 35.2083 16.2012L21.9105 28.7524C21.6006 29.0449 21.1906 29.2054 20.7507 29.2054C20.3108 29.2054 19.9008 29.0449 19.5909 28.7524L14.7917 24.2226C14.4518 23.9018 14.0118 23.7413 13.5619 23.7413Z" fill="white"/>
</svg>
